<svg xmlns="http://www.w3.org/2000/svg" width="500" height="500" viewBox="0 0 500 500" version="1.1">
	<path d="M 122 137.533 C 122 138.022, 139.723 169.336, 144.156 176.678 L 146.074 179.856 137.787 182.385 C 117.858 188.467, 100.560 203.655, 90.959 223.500 C 85.777 234.212, 83.963 241.443, 83.295 254.046 C 82.074 277.079, 90.376 298.403, 106.672 314.096 C 123.702 330.497, 143.156 337.915, 165.954 336.703 C 186.412 335.615, 203.876 327.971, 217.868 313.979 L 220.846 311.001 235.548 336.750 C 243.634 350.913, 250.357 362.626, 250.488 362.780 C 250.620 362.934, 257.142 351.797, 264.983 338.030 C 272.823 324.264, 279.606 313, 280.055 313 C 280.505 313, 283.626 315.402, 286.992 318.337 C 308.554 337.142, 340.744 342.159, 368.186 330.991 C 392.812 320.969, 411.364 297.542, 416.069 270.523 C 417.520 262.192, 416.776 245.941, 414.557 237.500 C 408.054 212.758, 386.896 190.132, 363.462 182.857 C 359.358 181.583, 356 180.179, 356 179.738 C 356 179.044, 372.570 149.571, 378.200 140.250 L 380.163 137 251.082 137 C 180.087 137, 122 137.240, 122 137.533 M 154.803 230.344 C 145.676 232.908, 137.719 240.263, 134.931 248.710 C 134.247 250.782, 133.946 255.499, 134.208 260.027 C 134.588 266.594, 135.140 268.539, 137.792 272.645 C 143.815 281.971, 151.118 286, 162 286 C 170.124 286, 174.514 284.459, 180.605 279.468 C 192.573 269.660, 193.594 249.534, 182.699 238.161 C 175.757 230.914, 164.251 227.690, 154.803 230.344 M 331.500 229.884 C 326.597 231.172, 320.714 234.601, 317.301 238.162 C 306.406 249.530, 307.427 269.660, 319.395 279.468 C 325.555 284.516, 329.857 286.003, 338.218 285.978 C 346.913 285.952, 352.086 283.914, 357.695 278.305 C 363.313 272.687, 365.364 267.778, 365.815 258.871 C 366.257 250.137, 364.515 244.934, 359.076 238.739 C 353.100 231.933, 339.873 227.685, 331.500 229.884" stroke="none" fill="black" fill-rule="evenodd"/>
</svg>